<svg width="44" height="44" viewBox="0 0 44 44" fill="none" xmlns="http://www.w3.org/2000/svg">
<path d="M10.725 31.35C12.2833 30.1584 14.025 29.2188 15.95 28.5313C17.875 27.8438 19.8917 27.5 22 27.5C24.1083 27.5 26.125 27.8438 28.05 28.5313C29.975 29.2188 31.7167 30.1584 33.275 31.35C34.3444 30.0972 35.1771 28.6764 35.7729 27.0875C36.3687 25.4986 36.6667 23.8028 36.6667 22C36.6667 17.9361 35.2382 14.4757 32.3812 11.6188C29.5243 8.76183 26.0639 7.33335 22 7.33335C17.9361 7.33335 14.4757 8.76183 11.6187 11.6188C8.7618 14.4757 7.33332 17.9361 7.33332 22C7.33332 23.8028 7.63124 25.4986 8.22707 27.0875C8.82291 28.6764 9.65555 30.0972 10.725 31.35ZM22 23.8334C20.1972 23.8334 18.6771 23.2146 17.4396 21.9771C16.2021 20.7396 15.5833 19.2195 15.5833 17.4167C15.5833 15.6139 16.2021 14.0938 17.4396 12.8563C18.6771 11.6188 20.1972 11 22 11C23.8028 11 25.3229 11.6188 26.5604 12.8563C27.7979 14.0938 28.4167 15.6139 28.4167 17.4167C28.4167 19.2195 27.7979 20.7396 26.5604 21.9771C25.3229 23.2146 23.8028 23.8334 22 23.8334ZM22 40.3334C19.4639 40.3334 17.0805 39.8521 14.85 38.8896C12.6194 37.9271 10.6792 36.6209 9.02916 34.9709C7.37916 33.3209 6.07291 31.3806 5.11041 29.15C4.14791 26.9195 3.66666 24.5361 3.66666 22C3.66666 19.4639 4.14791 17.0806 5.11041 14.85C6.07291 12.6195 7.37916 10.6792 9.02916 9.02919C10.6792 7.37919 12.6194 6.07294 14.85 5.11044C17.0805 4.14794 19.4639 3.66669 22 3.66669C24.5361 3.66669 26.9194 4.14794 29.15 5.11044C31.3805 6.07294 33.3208 7.37919 34.9708 9.02919C36.6208 10.6792 37.9271 12.6195 38.8896 14.85C39.8521 17.0806 40.3333 19.4639 40.3333 22C40.3333 24.5361 39.8521 26.9195 38.8896 29.15C37.9271 31.3806 36.6208 33.3209 34.9708 34.9709C33.3208 36.6209 31.3805 37.9271 29.15 38.8896C26.9194 39.8521 24.5361 40.3334 22 40.3334Z" fill="#AFC2D5"/>
</svg>
