<svg width="43" height="43" viewBox="0 0 43 43" fill="none" xmlns="http://www.w3.org/2000/svg">
<path d="M25.0833 37.1323V33.4594C27.7708 32.683 29.9358 31.1899 31.5781 28.9802C33.2205 26.7705 34.0417 24.2622 34.0417 21.4552C34.0417 18.6483 33.2205 16.1399 31.5781 13.9302C29.9358 11.7205 27.7708 10.2274 25.0833 9.45105V5.77814C28.7861 6.61425 31.8021 8.48803 34.1313 11.3995C36.4604 14.3109 37.625 17.6629 37.625 21.4552C37.625 25.2476 36.4604 28.5995 34.1313 31.5109C31.8021 34.4224 28.7861 36.2962 25.0833 37.1323ZM5.375 26.875V16.125H12.5417L21.5 7.16668V35.8333L12.5417 26.875H5.375ZM25.0833 28.6667V14.2438C26.4868 14.9007 27.5842 15.8861 28.3755 17.2C29.1668 18.5139 29.5625 19.9472 29.5625 21.5C29.5625 23.0229 29.1668 24.4339 28.3755 25.7328C27.5842 27.0318 26.4868 28.0097 25.0833 28.6667ZM17.9167 15.8563L14.0646 19.7083H8.95833V23.2917H14.0646L17.9167 27.1438V15.8563Z" fill="#1D1B20"/>
</svg>
